<?xml version="1.0" encoding="UTF-8" standalone="no"?>
<!DOCTYPE svg PUBLIC "-//W3C//DTD SVG 1.1//EN"
 "http://www.w3.org/Graphics/SVG/1.1/DTD/svg11.dtd">
<!-- Generated by graphviz version 2.40.1 (20161225.0304)
 -->
<!-- Title: public.user Pages: 1 -->
<svg width="642pt" height="532pt"
 viewBox="0.00 0.00 642.00 532.00" xmlns="http://www.w3.org/2000/svg" xmlns:xlink="http://www.w3.org/1999/xlink">
<g id="graph0" class="graph" transform="scale(1 1) rotate(0) translate(4 528)">
<title>public.user</title>
<polygon fill="#ffffff" stroke="transparent" points="-4,4 -4,-528 638,-528 638,4 -4,4"/>
<!-- public.user -->
<g id="node1" class="node">
<title>public.user</title>
<polygon fill="#efefef" stroke="transparent" points="46,-135.5 46,-170.5 274,-170.5 274,-135.5 46,-135.5"/>
<polygon fill="none" stroke="#000000" points="46,-135.5 46,-170.5 274,-170.5 274,-135.5 46,-135.5"/>
<text text-anchor="start" x="52.7091" y="-148.3" font-family="Arial Bold" font-size="18.00" fill="#000000">public.user</text>
<text text-anchor="start" x="139.7229" y="-148.3" font-family="Arial" font-size="14.00" fill="#000000">    </text>
<text text-anchor="start" x="173.9277" y="-148.3" font-family="Arial" font-size="14.00" fill="#666666">[BASE TABLE]</text>
<polygon fill="none" stroke="#000000" points="46,-105.5 46,-135.5 274,-135.5 274,-105.5 46,-105.5"/>
<text text-anchor="start" x="53" y="-116.9" font-family="Arial" font-size="14.00" fill="#000000">id </text>
<text text-anchor="start" x="67.7798" y="-116.9" font-family="Arial" font-size="14.00" fill="#666666">[integer]</text>
<polygon fill="none" stroke="#000000" points="46,-75.5 46,-105.5 274,-105.5 274,-75.5 46,-75.5"/>
<text text-anchor="start" x="53" y="-86.9" font-family="Arial" font-size="14.00" fill="#000000">email </text>
<text text-anchor="start" x="90.3296" y="-86.9" font-family="Arial" font-size="14.00" fill="#666666">[text]</text>
<polygon fill="none" stroke="#000000" points="46,-45.5 46,-75.5 274,-75.5 274,-45.5 46,-45.5"/>
<text text-anchor="start" x="53" y="-56.9" font-family="Arial" font-size="14.00" fill="#000000">name </text>
<text text-anchor="start" x="91.899" y="-56.9" font-family="Arial" font-size="14.00" fill="#666666">[text]</text>
<polygon fill="none" stroke="#000000" stroke-width="3" points="44.5,-44.5 44.5,-172.5 275.5,-172.5 275.5,-44.5 44.5,-44.5"/>
</g>
<!-- public.post -->
<g id="node2" class="node">
<title>public.post</title>
<polygon fill="#efefef" stroke="transparent" points="46,-445.5 46,-480.5 273,-480.5 273,-445.5 46,-445.5"/>
<polygon fill="none" stroke="#000000" points="46,-445.5 46,-480.5 273,-480.5 273,-445.5 46,-445.5"/>
<text text-anchor="start" x="52.7041" y="-458.3" font-family="Arial Bold" font-size="18.00" fill="#000000">public.post</text>
<text text-anchor="start" x="138.7279" y="-458.3" font-family="Arial" font-size="14.00" fill="#000000">    </text>
<text text-anchor="start" x="172.9327" y="-458.3" font-family="Arial" font-size="14.00" fill="#666666">[BASE TABLE]</text>
<polygon fill="none" stroke="#000000" points="46,-415.5 46,-445.5 273,-445.5 273,-415.5 46,-415.5"/>
<text text-anchor="start" x="53" y="-426.9" font-family="Arial" font-size="14.00" fill="#000000">id    </text>
<text text-anchor="start" x="98.094" y="-426.9" font-family="Arial" font-size="14.00" fill="#666666">[integer]</text>
<polygon fill="none" stroke="#000000" points="46,-385.5 46,-415.5 273,-415.5 273,-385.5 46,-385.5"/>
<text text-anchor="start" x="53" y="-396.9" font-family="Arial" font-size="14.00" fill="#000000">title    </text>
<text text-anchor="start" x="108.9818" y="-396.9" font-family="Arial" font-size="14.00" fill="#666666">[text]</text>
<polygon fill="none" stroke="#000000" points="46,-355.5 46,-385.5 273,-385.5 273,-355.5 46,-355.5"/>
<text text-anchor="start" x="53" y="-366.9" font-family="Arial" font-size="14.00" fill="#000000">content    </text>
<text text-anchor="start" x="133.1164" y="-366.9" font-family="Arial" font-size="14.00" fill="#666666">[text]</text>
<polygon fill="none" stroke="#000000" points="46,-325.5 46,-355.5 273,-355.5 273,-325.5 46,-325.5"/>
<text text-anchor="start" x="53" y="-336.9" font-family="Arial" font-size="14.00" fill="#000000">published    </text>
<text text-anchor="start" x="147.1136" y="-336.9" font-family="Arial" font-size="14.00" fill="#666666">[boolean]</text>
<polygon fill="none" stroke="#000000" points="46,-295.5 46,-325.5 273,-325.5 273,-295.5 46,-295.5"/>
<text text-anchor="start" x="53" y="-306.9" font-family="Arial" font-size="14.00" fill="#000000">authorId    </text>
<text text-anchor="start" x="138.5596" y="-306.9" font-family="Arial" font-size="14.00" fill="#666666">[integer]</text>
</g>
<!-- public.post&#45;&gt;public.user -->
<g id="edge1" class="edge">
<title>public.post:authorId&#45;&gt;public.user:id</title>
<path fill="none" stroke="#000000" d="M159.0925,-285.3723C149.869,-238.1836 72.8861,-268.1575 46,-217 26.0473,-179.035 3.1111,-120.5 46,-120.5"/>
<polygon fill="#000000" stroke="#000000" points="159.1075,-285.5399 155.518,-295.9016 159.5537,-290.52 160,-295.5 160,-295.5 160,-295.5 159.5537,-290.52 164.482,-295.0984 159.1075,-285.5399 159.1075,-285.5399"/>
<text text-anchor="start" x="166.566" y="-305.5" font-family="Arial" font-size="10.00" fill="#000000">FOREIGN KEY (&quot;authorId&quot;) REFERENCES &quot;user&quot;(id) ON UPDATE CASCADE ON DELETE RESTRICT</text>
</g>
</g>
</svg>
