<?xml version="1.0" encoding="UTF-8" standalone="no"?>
<!DOCTYPE svg PUBLIC "-//W3C//DTD SVG 1.1//EN"
 "http://www.w3.org/Graphics/SVG/1.1/DTD/svg11.dtd">
<!-- Generated by graphviz version 2.40.1 (20161225.0304)
 -->
<!-- Title: public.post Pages: 1 -->
<svg width="643pt" height="532pt"
 viewBox="0.00 0.00 642.50 532.00" xmlns="http://www.w3.org/2000/svg" xmlns:xlink="http://www.w3.org/1999/xlink">
<g id="graph0" class="graph" transform="scale(1 1) rotate(0) translate(4 528)">
<title>public.post</title>
<polygon fill="#ffffff" stroke="transparent" points="-4,4 -4,-528 638.5,-528 638.5,4 -4,4"/>
<!-- public.post -->
<g id="node1" class="node">
<title>public.post</title>
<polygon fill="#efefef" stroke="transparent" points="46.5,-442.5 46.5,-477.5 273.5,-477.5 273.5,-442.5 46.5,-442.5"/>
<polygon fill="none" stroke="#000000" points="46.5,-442.5 46.5,-477.5 273.5,-477.5 273.5,-442.5 46.5,-442.5"/>
<text text-anchor="start" x="53.2041" y="-455.3" font-family="Arial Bold" font-size="18.00" fill="#000000">public.post</text>
<text text-anchor="start" x="139.2279" y="-455.3" font-family="Arial" font-size="14.00" fill="#000000">    </text>
<text text-anchor="start" x="173.4327" y="-455.3" font-family="Arial" font-size="14.00" fill="#666666">[BASE TABLE]</text>
<polygon fill="none" stroke="#000000" points="46.5,-412.5 46.5,-442.5 273.5,-442.5 273.5,-412.5 46.5,-412.5"/>
<text text-anchor="start" x="53.5" y="-423.9" font-family="Arial" font-size="14.00" fill="#000000">id </text>
<text text-anchor="start" x="68.2798" y="-423.9" font-family="Arial" font-size="14.00" fill="#666666">[integer]</text>
<polygon fill="none" stroke="#000000" points="46.5,-382.5 46.5,-412.5 273.5,-412.5 273.5,-382.5 46.5,-382.5"/>
<text text-anchor="start" x="53.5" y="-393.9" font-family="Arial" font-size="14.00" fill="#000000">title </text>
<text text-anchor="start" x="79.1676" y="-393.9" font-family="Arial" font-size="14.00" fill="#666666">[text]</text>
<polygon fill="none" stroke="#000000" points="46.5,-352.5 46.5,-382.5 273.5,-382.5 273.5,-352.5 46.5,-352.5"/>
<text text-anchor="start" x="53.5" y="-363.9" font-family="Arial" font-size="14.00" fill="#000000">content </text>
<text text-anchor="start" x="103.3022" y="-363.9" font-family="Arial" font-size="14.00" fill="#666666">[text]</text>
<polygon fill="none" stroke="#000000" points="46.5,-322.5 46.5,-352.5 273.5,-352.5 273.5,-322.5 46.5,-322.5"/>
<text text-anchor="start" x="53.5" y="-333.9" font-family="Arial" font-size="14.00" fill="#000000">published </text>
<text text-anchor="start" x="117.2994" y="-333.9" font-family="Arial" font-size="14.00" fill="#666666">[boolean]</text>
<polygon fill="none" stroke="#000000" points="46.5,-292.5 46.5,-322.5 273.5,-322.5 273.5,-292.5 46.5,-292.5"/>
<text text-anchor="start" x="53.5" y="-303.9" font-family="Arial" font-size="14.00" fill="#000000">authorId </text>
<text text-anchor="start" x="108.7454" y="-303.9" font-family="Arial" font-size="14.00" fill="#666666">[integer]</text>
<polygon fill="none" stroke="#000000" stroke-width="3" points="44.5,-291.5 44.5,-479.5 274.5,-479.5 274.5,-291.5 44.5,-291.5"/>
</g>
<!-- public.user -->
<g id="node2" class="node">
<title>public.user</title>
<polygon fill="#efefef" stroke="transparent" points="46.5,-132.5 46.5,-167.5 274.5,-167.5 274.5,-132.5 46.5,-132.5"/>
<polygon fill="none" stroke="#000000" points="46.5,-132.5 46.5,-167.5 274.5,-167.5 274.5,-132.5 46.5,-132.5"/>
<text text-anchor="start" x="53.2091" y="-145.3" font-family="Arial Bold" font-size="18.00" fill="#000000">public.user</text>
<text text-anchor="start" x="140.2229" y="-145.3" font-family="Arial" font-size="14.00" fill="#000000">    </text>
<text text-anchor="start" x="174.4277" y="-145.3" font-family="Arial" font-size="14.00" fill="#666666">[BASE TABLE]</text>
<polygon fill="none" stroke="#000000" points="46.5,-102.5 46.5,-132.5 274.5,-132.5 274.5,-102.5 46.5,-102.5"/>
<text text-anchor="start" x="53.5" y="-113.9" font-family="Arial" font-size="14.00" fill="#000000">id    </text>
<text text-anchor="start" x="98.594" y="-113.9" font-family="Arial" font-size="14.00" fill="#666666">[integer]</text>
<polygon fill="none" stroke="#000000" points="46.5,-72.5 46.5,-102.5 274.5,-102.5 274.5,-72.5 46.5,-72.5"/>
<text text-anchor="start" x="53.5" y="-83.9" font-family="Arial" font-size="14.00" fill="#000000">email    </text>
<text text-anchor="start" x="121.1438" y="-83.9" font-family="Arial" font-size="14.00" fill="#666666">[text]</text>
<polygon fill="none" stroke="#000000" points="46.5,-42.5 46.5,-72.5 274.5,-72.5 274.5,-42.5 46.5,-42.5"/>
<text text-anchor="start" x="53.5" y="-53.9" font-family="Arial" font-size="14.00" fill="#000000">name    </text>
<text text-anchor="start" x="122.7132" y="-53.9" font-family="Arial" font-size="14.00" fill="#666666">[text]</text>
</g>
<!-- public.post&#45;&gt;public.user -->
<g id="edge1" class="edge">
<title>public.post:authorId&#45;&gt;public.user:id</title>
<path fill="none" stroke="#000000" d="M159.6479,-282.5276C150.6748,-234.1413 73.3188,-263.1406 46.5,-211 27.4926,-174.0462 4.9444,-117.5 46.5,-117.5"/>
<polygon fill="#000000" stroke="#000000" points="159.6486,-282.5363 156.0163,-292.8831 160.0743,-287.5182 160.5,-292.5 160.5,-292.5 160.5,-292.5 160.0743,-287.5182 164.9837,-292.1169 159.6486,-282.5363 159.6486,-282.5363"/>
<text text-anchor="start" x="167.066" y="-302.5" font-family="Arial" font-size="10.00" fill="#000000">FOREIGN KEY (&quot;authorId&quot;) REFERENCES &quot;user&quot;(id) ON UPDATE CASCADE ON DELETE RESTRICT</text>
</g>
</g>
</svg>
