<?xml version="1.0" encoding="UTF-8" standalone="no"?>
<!DOCTYPE svg PUBLIC "-//W3C//DTD SVG 1.1//EN"
 "http://www.w3.org/Graphics/SVG/1.1/DTD/svg11.dtd">
<!-- Generated by graphviz version 2.40.1 (20161225.0304)
 -->
<!-- Title: public.User Pages: 1 -->
<svg width="647pt" height="532pt"
 viewBox="0.00 0.00 646.50 532.00" xmlns="http://www.w3.org/2000/svg" xmlns:xlink="http://www.w3.org/1999/xlink">
<g id="graph0" class="graph" transform="scale(1 1) rotate(0) translate(4 528)">
<title>public.User</title>
<polygon fill="#ffffff" stroke="transparent" points="-4,4 -4,-528 642.5,-528 642.5,4 -4,4"/>
<!-- public.User -->
<g id="node1" class="node">
<title>public.User</title>
<polygon fill="#efefef" stroke="transparent" points="46.5,-135.5 46.5,-170.5 277.5,-170.5 277.5,-135.5 46.5,-135.5"/>
<polygon fill="none" stroke="#000000" points="46.5,-135.5 46.5,-170.5 277.5,-170.5 277.5,-135.5 46.5,-135.5"/>
<text text-anchor="start" x="53.2151" y="-148.3" font-family="Arial Bold" font-size="18.00" fill="#000000">public.User</text>
<text text-anchor="start" x="143.2169" y="-148.3" font-family="Arial" font-size="14.00" fill="#000000">    </text>
<text text-anchor="start" x="177.4217" y="-148.3" font-family="Arial" font-size="14.00" fill="#666666">[BASE TABLE]</text>
<polygon fill="none" stroke="#000000" points="46.5,-105.5 46.5,-135.5 277.5,-135.5 277.5,-105.5 46.5,-105.5"/>
<text text-anchor="start" x="53.5" y="-116.9" font-family="Arial" font-size="14.00" fill="#000000">id </text>
<text text-anchor="start" x="68.2798" y="-116.9" font-family="Arial" font-size="14.00" fill="#666666">[integer]</text>
<polygon fill="none" stroke="#000000" points="46.5,-75.5 46.5,-105.5 277.5,-105.5 277.5,-75.5 46.5,-75.5"/>
<text text-anchor="start" x="53.5" y="-86.9" font-family="Arial" font-size="14.00" fill="#000000">email </text>
<text text-anchor="start" x="90.8296" y="-86.9" font-family="Arial" font-size="14.00" fill="#666666">[text]</text>
<polygon fill="none" stroke="#000000" points="46.5,-45.5 46.5,-75.5 277.5,-75.5 277.5,-45.5 46.5,-45.5"/>
<text text-anchor="start" x="53.5" y="-56.9" font-family="Arial" font-size="14.00" fill="#000000">name </text>
<text text-anchor="start" x="92.399" y="-56.9" font-family="Arial" font-size="14.00" fill="#666666">[text]</text>
<polygon fill="none" stroke="#000000" stroke-width="3" points="44.5,-44.5 44.5,-172.5 278.5,-172.5 278.5,-44.5 44.5,-44.5"/>
</g>
<!-- public.Post -->
<g id="node2" class="node">
<title>public.Post</title>
<polygon fill="#efefef" stroke="transparent" points="47.5,-445.5 47.5,-480.5 276.5,-480.5 276.5,-445.5 47.5,-445.5"/>
<polygon fill="none" stroke="#000000" points="47.5,-445.5 47.5,-480.5 276.5,-480.5 276.5,-445.5 47.5,-445.5"/>
<text text-anchor="start" x="54.2051" y="-458.3" font-family="Arial Bold" font-size="18.00" fill="#000000">public.Post</text>
<text text-anchor="start" x="142.2269" y="-458.3" font-family="Arial" font-size="14.00" fill="#000000">    </text>
<text text-anchor="start" x="176.4317" y="-458.3" font-family="Arial" font-size="14.00" fill="#666666">[BASE TABLE]</text>
<polygon fill="none" stroke="#000000" points="47.5,-415.5 47.5,-445.5 276.5,-445.5 276.5,-415.5 47.5,-415.5"/>
<text text-anchor="start" x="54.5" y="-426.9" font-family="Arial" font-size="14.00" fill="#000000">id    </text>
<text text-anchor="start" x="99.594" y="-426.9" font-family="Arial" font-size="14.00" fill="#666666">[integer]</text>
<polygon fill="none" stroke="#000000" points="47.5,-385.5 47.5,-415.5 276.5,-415.5 276.5,-385.5 47.5,-385.5"/>
<text text-anchor="start" x="54.5" y="-396.9" font-family="Arial" font-size="14.00" fill="#000000">title    </text>
<text text-anchor="start" x="110.4818" y="-396.9" font-family="Arial" font-size="14.00" fill="#666666">[text]</text>
<polygon fill="none" stroke="#000000" points="47.5,-355.5 47.5,-385.5 276.5,-385.5 276.5,-355.5 47.5,-355.5"/>
<text text-anchor="start" x="54.5" y="-366.9" font-family="Arial" font-size="14.00" fill="#000000">content    </text>
<text text-anchor="start" x="134.6164" y="-366.9" font-family="Arial" font-size="14.00" fill="#666666">[text]</text>
<polygon fill="none" stroke="#000000" points="47.5,-325.5 47.5,-355.5 276.5,-355.5 276.5,-325.5 47.5,-325.5"/>
<text text-anchor="start" x="54.5" y="-336.9" font-family="Arial" font-size="14.00" fill="#000000">published    </text>
<text text-anchor="start" x="148.6136" y="-336.9" font-family="Arial" font-size="14.00" fill="#666666">[boolean]</text>
<polygon fill="none" stroke="#000000" points="47.5,-295.5 47.5,-325.5 276.5,-325.5 276.5,-295.5 47.5,-295.5"/>
<text text-anchor="start" x="54.5" y="-306.9" font-family="Arial" font-size="14.00" fill="#000000">authorId    </text>
<text text-anchor="start" x="140.0596" y="-306.9" font-family="Arial" font-size="14.00" fill="#666666">[integer]</text>
</g>
<!-- public.Post&#45;&gt;public.User -->
<g id="edge1" class="edge">
<title>public.Post:authorId&#45;&gt;public.User:id</title>
<path fill="none" stroke="#000000" d="M161.5773,-285.2601C152.1983,-237.5961 73.9164,-268.6575 46.5,-217 26.3937,-179.1161 3.6111,-120.5 46.5,-120.5"/>
<polygon fill="#000000" stroke="#000000" points="161.6024,-285.5404 158.0182,-295.9039 162.0512,-290.5202 162.5,-295.5 162.5,-295.5 162.5,-295.5 162.0512,-290.5202 166.9818,-295.0961 161.6024,-285.5404 161.6024,-285.5404"/>
<text text-anchor="start" x="169.236" y="-305.5" font-family="Arial" font-size="10.00" fill="#000000">FOREIGN KEY (&quot;authorId&quot;) REFERENCES &quot;User&quot;(id) ON UPDATE CASCADE ON DELETE RESTRICT</text>
</g>
</g>
</svg>
