<?xml version="1.0" encoding="UTF-8" standalone="no"?>
<!DOCTYPE svg PUBLIC "-//W3C//DTD SVG 1.1//EN"
 "http://www.w3.org/Graphics/SVG/1.1/DTD/svg11.dtd">
<!-- Generated by graphviz version 2.40.1 (20161225.0304)
 -->
<!-- Title: public.Post Pages: 1 -->
<svg width="646pt" height="532pt"
 viewBox="0.00 0.00 645.50 532.00" xmlns="http://www.w3.org/2000/svg" xmlns:xlink="http://www.w3.org/1999/xlink">
<g id="graph0" class="graph" transform="scale(1 1) rotate(0) translate(4 528)">
<title>public.Post</title>
<polygon fill="#ffffff" stroke="transparent" points="-4,4 -4,-528 641.5,-528 641.5,4 -4,4"/>
<!-- public.Post -->
<g id="node1" class="node">
<title>public.Post</title>
<polygon fill="#efefef" stroke="transparent" points="46.5,-442.5 46.5,-477.5 275.5,-477.5 275.5,-442.5 46.5,-442.5"/>
<polygon fill="none" stroke="#000000" points="46.5,-442.5 46.5,-477.5 275.5,-477.5 275.5,-442.5 46.5,-442.5"/>
<text text-anchor="start" x="53.2051" y="-455.3" font-family="Arial Bold" font-size="18.00" fill="#000000">public.Post</text>
<text text-anchor="start" x="141.2269" y="-455.3" font-family="Arial" font-size="14.00" fill="#000000">    </text>
<text text-anchor="start" x="175.4317" y="-455.3" font-family="Arial" font-size="14.00" fill="#666666">[BASE TABLE]</text>
<polygon fill="none" stroke="#000000" points="46.5,-412.5 46.5,-442.5 275.5,-442.5 275.5,-412.5 46.5,-412.5"/>
<text text-anchor="start" x="53.5" y="-423.9" font-family="Arial" font-size="14.00" fill="#000000">id </text>
<text text-anchor="start" x="68.2798" y="-423.9" font-family="Arial" font-size="14.00" fill="#666666">[integer]</text>
<polygon fill="none" stroke="#000000" points="46.5,-382.5 46.5,-412.5 275.5,-412.5 275.5,-382.5 46.5,-382.5"/>
<text text-anchor="start" x="53.5" y="-393.9" font-family="Arial" font-size="14.00" fill="#000000">title </text>
<text text-anchor="start" x="79.1676" y="-393.9" font-family="Arial" font-size="14.00" fill="#666666">[text]</text>
<polygon fill="none" stroke="#000000" points="46.5,-352.5 46.5,-382.5 275.5,-382.5 275.5,-352.5 46.5,-352.5"/>
<text text-anchor="start" x="53.5" y="-363.9" font-family="Arial" font-size="14.00" fill="#000000">content </text>
<text text-anchor="start" x="103.3022" y="-363.9" font-family="Arial" font-size="14.00" fill="#666666">[text]</text>
<polygon fill="none" stroke="#000000" points="46.5,-322.5 46.5,-352.5 275.5,-352.5 275.5,-322.5 46.5,-322.5"/>
<text text-anchor="start" x="53.5" y="-333.9" font-family="Arial" font-size="14.00" fill="#000000">published </text>
<text text-anchor="start" x="117.2994" y="-333.9" font-family="Arial" font-size="14.00" fill="#666666">[boolean]</text>
<polygon fill="none" stroke="#000000" points="46.5,-292.5 46.5,-322.5 275.5,-322.5 275.5,-292.5 46.5,-292.5"/>
<text text-anchor="start" x="53.5" y="-303.9" font-family="Arial" font-size="14.00" fill="#000000">authorId </text>
<text text-anchor="start" x="108.7454" y="-303.9" font-family="Arial" font-size="14.00" fill="#666666">[integer]</text>
<polygon fill="none" stroke="#000000" stroke-width="3" points="44.5,-291.5 44.5,-479.5 276.5,-479.5 276.5,-291.5 44.5,-291.5"/>
</g>
<!-- public.User -->
<g id="node2" class="node">
<title>public.User</title>
<polygon fill="#efefef" stroke="transparent" points="45.5,-132.5 45.5,-167.5 276.5,-167.5 276.5,-132.5 45.5,-132.5"/>
<polygon fill="none" stroke="#000000" points="45.5,-132.5 45.5,-167.5 276.5,-167.5 276.5,-132.5 45.5,-132.5"/>
<text text-anchor="start" x="52.2151" y="-145.3" font-family="Arial Bold" font-size="18.00" fill="#000000">public.User</text>
<text text-anchor="start" x="142.2169" y="-145.3" font-family="Arial" font-size="14.00" fill="#000000">    </text>
<text text-anchor="start" x="176.4217" y="-145.3" font-family="Arial" font-size="14.00" fill="#666666">[BASE TABLE]</text>
<polygon fill="none" stroke="#000000" points="45.5,-102.5 45.5,-132.5 276.5,-132.5 276.5,-102.5 45.5,-102.5"/>
<text text-anchor="start" x="52.5" y="-113.9" font-family="Arial" font-size="14.00" fill="#000000">id    </text>
<text text-anchor="start" x="97.594" y="-113.9" font-family="Arial" font-size="14.00" fill="#666666">[integer]</text>
<polygon fill="none" stroke="#000000" points="45.5,-72.5 45.5,-102.5 276.5,-102.5 276.5,-72.5 45.5,-72.5"/>
<text text-anchor="start" x="52.5" y="-83.9" font-family="Arial" font-size="14.00" fill="#000000">email    </text>
<text text-anchor="start" x="120.1438" y="-83.9" font-family="Arial" font-size="14.00" fill="#666666">[text]</text>
<polygon fill="none" stroke="#000000" points="45.5,-42.5 45.5,-72.5 276.5,-72.5 276.5,-42.5 45.5,-42.5"/>
<text text-anchor="start" x="52.5" y="-53.9" font-family="Arial" font-size="14.00" fill="#000000">name    </text>
<text text-anchor="start" x="121.7132" y="-53.9" font-family="Arial" font-size="14.00" fill="#666666">[text]</text>
</g>
<!-- public.Post&#45;&gt;public.User -->
<g id="edge1" class="edge">
<title>public.Post:authorId&#45;&gt;public.User:id</title>
<path fill="none" stroke="#000000" d="M160.6336,-282.4198C151.5093,-233.5566 72.8472,-263.636 45.5,-211 26.3412,-174.1245 3.9444,-117.5 45.5,-117.5"/>
<polygon fill="#000000" stroke="#000000" points="160.6435,-282.5367 157.0165,-292.8854 161.0718,-287.5184 161.5,-292.5 161.5,-292.5 161.5,-292.5 161.0718,-287.5184 165.9835,-292.1146 160.6435,-282.5367 160.6435,-282.5367"/>
<text text-anchor="start" x="168.236" y="-302.5" font-family="Arial" font-size="10.00" fill="#000000">FOREIGN KEY (&quot;authorId&quot;) REFERENCES &quot;User&quot;(id) ON UPDATE CASCADE ON DELETE RESTRICT</text>
</g>
</g>
</svg>
