<?xml version="1.0" encoding="UTF-8" standalone="no"?>
<!DOCTYPE svg PUBLIC "-//W3C//DTD SVG 1.1//EN"
 "http://www.w3.org/Graphics/SVG/1.1/DTD/svg11.dtd">
<!-- Generated by graphviz version 2.40.1 (20161225.0304)
 -->
<!-- Title: mydb Pages: 1 -->
<svg width="1097pt" height="616pt"
 viewBox="0.00 0.00 1097.00 616.00" xmlns="http://www.w3.org/2000/svg" xmlns:xlink="http://www.w3.org/1999/xlink">
<g id="graph0" class="graph" transform="scale(1 1) rotate(0) translate(4 612)">
<title>mydb</title>
<polygon fill="#ffffff" stroke="transparent" points="-4,4 -4,-612 1093,-612 1093,4 -4,4"/>
<!-- public._prisma_migrations -->
<g id="node1" class="node">
<title>public._prisma_migrations</title>
<polygon fill="#efefef" stroke="transparent" points="43,-529.5 43,-564.5 393,-564.5 393,-529.5 43,-529.5"/>
<polygon fill="none" stroke="#000000" points="43,-529.5 43,-564.5 393,-564.5 393,-529.5 43,-529.5"/>
<text text-anchor="start" x="49.7098" y="-542.3" font-family="Arial Bold" font-size="18.00" fill="#000000">public._prisma_migrations</text>
<text text-anchor="start" x="258.7222" y="-542.3" font-family="Arial" font-size="14.00" fill="#000000">    </text>
<text text-anchor="start" x="292.927" y="-542.3" font-family="Arial" font-size="14.00" fill="#666666">[BASE TABLE]</text>
<polygon fill="none" stroke="#000000" points="43,-499.5 43,-529.5 393,-529.5 393,-499.5 43,-499.5"/>
<text text-anchor="start" x="50" y="-510.9" font-family="Arial" font-size="14.00" fill="#000000">id    </text>
<text text-anchor="start" x="95.094" y="-510.9" font-family="Arial" font-size="14.00" fill="#666666">[varchar(36)]</text>
<polygon fill="none" stroke="#000000" points="43,-469.5 43,-499.5 393,-499.5 393,-469.5 43,-469.5"/>
<text text-anchor="start" x="50" y="-480.9" font-family="Arial" font-size="14.00" fill="#000000">checksum    </text>
<text text-anchor="start" x="147.2132" y="-480.9" font-family="Arial" font-size="14.00" fill="#666666">[varchar(64)]</text>
<polygon fill="none" stroke="#000000" points="43,-439.5 43,-469.5 393,-469.5 393,-439.5 43,-439.5"/>
<text text-anchor="start" x="50" y="-450.9" font-family="Arial" font-size="14.00" fill="#000000">finished_at    </text>
<text text-anchor="start" x="151.8948" y="-450.9" font-family="Arial" font-size="14.00" fill="#666666">[timestamp with time zone]</text>
<polygon fill="none" stroke="#000000" points="43,-409.5 43,-439.5 393,-439.5 393,-409.5 43,-409.5"/>
<text text-anchor="start" x="50" y="-420.9" font-family="Arial" font-size="14.00" fill="#000000">migration_name    </text>
<text text-anchor="start" x="184.5512" y="-420.9" font-family="Arial" font-size="14.00" fill="#666666">[varchar(255)]</text>
<polygon fill="none" stroke="#000000" points="43,-379.5 43,-409.5 393,-409.5 393,-379.5 43,-379.5"/>
<text text-anchor="start" x="50" y="-390.9" font-family="Arial" font-size="14.00" fill="#000000">logs    </text>
<text text-anchor="start" x="109.8766" y="-390.9" font-family="Arial" font-size="14.00" fill="#666666">[text]</text>
<polygon fill="none" stroke="#000000" points="43,-349.5 43,-379.5 393,-379.5 393,-349.5 43,-349.5"/>
<text text-anchor="start" x="50" y="-360.9" font-family="Arial" font-size="14.00" fill="#000000">rolled_back_at    </text>
<text text-anchor="start" x="175.23" y="-360.9" font-family="Arial" font-size="14.00" fill="#666666">[timestamp with time zone]</text>
<polygon fill="none" stroke="#000000" points="43,-319.5 43,-349.5 393,-349.5 393,-319.5 43,-319.5"/>
<text text-anchor="start" x="50" y="-330.9" font-family="Arial" font-size="14.00" fill="#000000">started_at    </text>
<text text-anchor="start" x="146.4502" y="-330.9" font-family="Arial" font-size="14.00" fill="#666666">[timestamp with time zone]</text>
<polygon fill="none" stroke="#000000" points="43,-289.5 43,-319.5 393,-319.5 393,-289.5 43,-289.5"/>
<text text-anchor="start" x="50" y="-300.9" font-family="Arial" font-size="14.00" fill="#000000">applied_steps_count    </text>
<text text-anchor="start" x="212.5904" y="-300.9" font-family="Arial" font-size="14.00" fill="#666666">[integer]</text>
</g>
<!-- public.User -->
<g id="node2" class="node">
<title>public.User</title>
<polygon fill="#efefef" stroke="transparent" points="497,-132.5 497,-167.5 728,-167.5 728,-132.5 497,-132.5"/>
<polygon fill="none" stroke="#000000" points="497,-132.5 497,-167.5 728,-167.5 728,-132.5 497,-132.5"/>
<text text-anchor="start" x="503.7151" y="-145.3" font-family="Arial Bold" font-size="18.00" fill="#000000">public.User</text>
<text text-anchor="start" x="593.7169" y="-145.3" font-family="Arial" font-size="14.00" fill="#000000">    </text>
<text text-anchor="start" x="627.9217" y="-145.3" font-family="Arial" font-size="14.00" fill="#666666">[BASE TABLE]</text>
<polygon fill="none" stroke="#000000" points="497,-102.5 497,-132.5 728,-132.5 728,-102.5 497,-102.5"/>
<text text-anchor="start" x="504" y="-113.9" font-family="Arial" font-size="14.00" fill="#000000">id    </text>
<text text-anchor="start" x="549.094" y="-113.9" font-family="Arial" font-size="14.00" fill="#666666">[integer]</text>
<polygon fill="none" stroke="#000000" points="497,-72.5 497,-102.5 728,-102.5 728,-72.5 497,-72.5"/>
<text text-anchor="start" x="504" y="-83.9" font-family="Arial" font-size="14.00" fill="#000000">email    </text>
<text text-anchor="start" x="571.6438" y="-83.9" font-family="Arial" font-size="14.00" fill="#666666">[text]</text>
<polygon fill="none" stroke="#000000" points="497,-42.5 497,-72.5 728,-72.5 728,-42.5 497,-42.5"/>
<text text-anchor="start" x="504" y="-53.9" font-family="Arial" font-size="14.00" fill="#000000">name    </text>
<text text-anchor="start" x="573.2132" y="-53.9" font-family="Arial" font-size="14.00" fill="#666666">[text]</text>
</g>
<!-- public.Post -->
<g id="node3" class="node">
<title>public.Post</title>
<polygon fill="#efefef" stroke="transparent" points="498,-484.5 498,-519.5 727,-519.5 727,-484.5 498,-484.5"/>
<polygon fill="none" stroke="#000000" points="498,-484.5 498,-519.5 727,-519.5 727,-484.5 498,-484.5"/>
<text text-anchor="start" x="504.7051" y="-497.3" font-family="Arial Bold" font-size="18.00" fill="#000000">public.Post</text>
<text text-anchor="start" x="592.7269" y="-497.3" font-family="Arial" font-size="14.00" fill="#000000">    </text>
<text text-anchor="start" x="626.9317" y="-497.3" font-family="Arial" font-size="14.00" fill="#666666">[BASE TABLE]</text>
<polygon fill="none" stroke="#000000" points="498,-454.5 498,-484.5 727,-484.5 727,-454.5 498,-454.5"/>
<text text-anchor="start" x="505" y="-465.9" font-family="Arial" font-size="14.00" fill="#000000">id    </text>
<text text-anchor="start" x="550.094" y="-465.9" font-family="Arial" font-size="14.00" fill="#666666">[integer]</text>
<polygon fill="none" stroke="#000000" points="498,-424.5 498,-454.5 727,-454.5 727,-424.5 498,-424.5"/>
<text text-anchor="start" x="505" y="-435.9" font-family="Arial" font-size="14.00" fill="#000000">title    </text>
<text text-anchor="start" x="560.9818" y="-435.9" font-family="Arial" font-size="14.00" fill="#666666">[text]</text>
<polygon fill="none" stroke="#000000" points="498,-394.5 498,-424.5 727,-424.5 727,-394.5 498,-394.5"/>
<text text-anchor="start" x="505" y="-405.9" font-family="Arial" font-size="14.00" fill="#000000">content    </text>
<text text-anchor="start" x="585.1164" y="-405.9" font-family="Arial" font-size="14.00" fill="#666666">[text]</text>
<polygon fill="none" stroke="#000000" points="498,-364.5 498,-394.5 727,-394.5 727,-364.5 498,-364.5"/>
<text text-anchor="start" x="505" y="-375.9" font-family="Arial" font-size="14.00" fill="#000000">published    </text>
<text text-anchor="start" x="599.1136" y="-375.9" font-family="Arial" font-size="14.00" fill="#666666">[boolean]</text>
<polygon fill="none" stroke="#000000" points="498,-334.5 498,-364.5 727,-364.5 727,-334.5 498,-334.5"/>
<text text-anchor="start" x="505" y="-345.9" font-family="Arial" font-size="14.00" fill="#000000">authorId    </text>
<text text-anchor="start" x="590.5596" y="-345.9" font-family="Arial" font-size="14.00" fill="#666666">[integer]</text>
</g>
<!-- public.Post&#45;&gt;public.User -->
<g id="edge1" class="edge">
<title>public.Post:authorId&#45;&gt;public.User:id</title>
<path fill="none" stroke="#000000" d="M612.3859,-324.1418C604.5238,-261.1074 523.3715,-277.5961 497,-211 481.7002,-172.3635 455.4444,-117.5 497,-117.5"/>
<polygon fill="#000000" stroke="#000000" points="612.4081,-324.5175 608.5079,-334.7663 612.7041,-329.5088 613,-334.5 613,-334.5 613,-334.5 612.7041,-329.5088 617.4921,-334.2337 612.4081,-324.5175 612.4081,-324.5175"/>
<text text-anchor="start" x="619.736" y="-344.5" font-family="Arial" font-size="10.00" fill="#000000">FOREIGN KEY (&quot;authorId&quot;) REFERENCES &quot;User&quot;(id) ON UPDATE CASCADE ON DELETE RESTRICT</text>
</g>
</g>
</svg>
