<?xml version="1.0" encoding="UTF-8" standalone="no"?>
<!DOCTYPE svg PUBLIC "-//W3C//DTD SVG 1.1//EN"
 "http://www.w3.org/Graphics/SVG/1.1/DTD/svg11.dtd">
<!-- Generated by graphviz version 2.40.1 (20161225.0304)
 -->
<!-- Title: mydb Pages: 1 -->
<svg width="640pt" height="526pt"
 viewBox="0.00 0.00 639.50 526.00" xmlns="http://www.w3.org/2000/svg" xmlns:xlink="http://www.w3.org/1999/xlink">
<g id="graph0" class="graph" transform="scale(1 1) rotate(0) translate(4 522)">
<title>mydb</title>
<polygon fill="#ffffff" stroke="transparent" points="-4,4 -4,-522 635.5,-522 635.5,4 -4,4"/>
<!-- public.user -->
<g id="node1" class="node">
<title>public.user</title>
<polygon fill="#efefef" stroke="transparent" points="43.5,-132.5 43.5,-167.5 271.5,-167.5 271.5,-132.5 43.5,-132.5"/>
<polygon fill="none" stroke="#000000" points="43.5,-132.5 43.5,-167.5 271.5,-167.5 271.5,-132.5 43.5,-132.5"/>
<text text-anchor="start" x="50.2091" y="-145.3" font-family="Arial Bold" font-size="18.00" fill="#000000">public.user</text>
<text text-anchor="start" x="137.2229" y="-145.3" font-family="Arial" font-size="14.00" fill="#000000">    </text>
<text text-anchor="start" x="171.4277" y="-145.3" font-family="Arial" font-size="14.00" fill="#666666">[BASE TABLE]</text>
<polygon fill="none" stroke="#000000" points="43.5,-102.5 43.5,-132.5 271.5,-132.5 271.5,-102.5 43.5,-102.5"/>
<text text-anchor="start" x="50.5" y="-113.9" font-family="Arial" font-size="14.00" fill="#000000">id    </text>
<text text-anchor="start" x="95.594" y="-113.9" font-family="Arial" font-size="14.00" fill="#666666">[integer]</text>
<polygon fill="none" stroke="#000000" points="43.5,-72.5 43.5,-102.5 271.5,-102.5 271.5,-72.5 43.5,-72.5"/>
<text text-anchor="start" x="50.5" y="-83.9" font-family="Arial" font-size="14.00" fill="#000000">email    </text>
<text text-anchor="start" x="118.1438" y="-83.9" font-family="Arial" font-size="14.00" fill="#666666">[text]</text>
<polygon fill="none" stroke="#000000" points="43.5,-42.5 43.5,-72.5 271.5,-72.5 271.5,-42.5 43.5,-42.5"/>
<text text-anchor="start" x="50.5" y="-53.9" font-family="Arial" font-size="14.00" fill="#000000">name    </text>
<text text-anchor="start" x="119.7132" y="-53.9" font-family="Arial" font-size="14.00" fill="#666666">[text]</text>
</g>
<!-- public.post -->
<g id="node2" class="node">
<title>public.post</title>
<polygon fill="#efefef" stroke="transparent" points="43.5,-439.5 43.5,-474.5 270.5,-474.5 270.5,-439.5 43.5,-439.5"/>
<polygon fill="none" stroke="#000000" points="43.5,-439.5 43.5,-474.5 270.5,-474.5 270.5,-439.5 43.5,-439.5"/>
<text text-anchor="start" x="50.2041" y="-452.3" font-family="Arial Bold" font-size="18.00" fill="#000000">public.post</text>
<text text-anchor="start" x="136.2279" y="-452.3" font-family="Arial" font-size="14.00" fill="#000000">    </text>
<text text-anchor="start" x="170.4327" y="-452.3" font-family="Arial" font-size="14.00" fill="#666666">[BASE TABLE]</text>
<polygon fill="none" stroke="#000000" points="43.5,-409.5 43.5,-439.5 270.5,-439.5 270.5,-409.5 43.5,-409.5"/>
<text text-anchor="start" x="50.5" y="-420.9" font-family="Arial" font-size="14.00" fill="#000000">id    </text>
<text text-anchor="start" x="95.594" y="-420.9" font-family="Arial" font-size="14.00" fill="#666666">[integer]</text>
<polygon fill="none" stroke="#000000" points="43.5,-379.5 43.5,-409.5 270.5,-409.5 270.5,-379.5 43.5,-379.5"/>
<text text-anchor="start" x="50.5" y="-390.9" font-family="Arial" font-size="14.00" fill="#000000">title    </text>
<text text-anchor="start" x="106.4818" y="-390.9" font-family="Arial" font-size="14.00" fill="#666666">[text]</text>
<polygon fill="none" stroke="#000000" points="43.5,-349.5 43.5,-379.5 270.5,-379.5 270.5,-349.5 43.5,-349.5"/>
<text text-anchor="start" x="50.5" y="-360.9" font-family="Arial" font-size="14.00" fill="#000000">content    </text>
<text text-anchor="start" x="130.6164" y="-360.9" font-family="Arial" font-size="14.00" fill="#666666">[text]</text>
<polygon fill="none" stroke="#000000" points="43.5,-319.5 43.5,-349.5 270.5,-349.5 270.5,-319.5 43.5,-319.5"/>
<text text-anchor="start" x="50.5" y="-330.9" font-family="Arial" font-size="14.00" fill="#000000">published    </text>
<text text-anchor="start" x="144.6136" y="-330.9" font-family="Arial" font-size="14.00" fill="#666666">[boolean]</text>
<polygon fill="none" stroke="#000000" points="43.5,-289.5 43.5,-319.5 270.5,-319.5 270.5,-289.5 43.5,-289.5"/>
<text text-anchor="start" x="50.5" y="-300.9" font-family="Arial" font-size="14.00" fill="#000000">authorId    </text>
<text text-anchor="start" x="136.0596" y="-300.9" font-family="Arial" font-size="14.00" fill="#666666">[integer]</text>
</g>
<!-- public.post&#45;&gt;public.user -->
<g id="edge1" class="edge">
<title>public.post:authorId&#45;&gt;public.user:id</title>
<path fill="none" stroke="#000000" d="M156.5925,-279.3723C147.369,-232.1836 70.3861,-262.1575 43.5,-211 24.1676,-174.2152 1.9444,-117.5 43.5,-117.5"/>
<polygon fill="#000000" stroke="#000000" points="156.6075,-279.5399 153.018,-289.9016 157.0537,-284.52 157.5,-289.5 157.5,-289.5 157.5,-289.5 157.0537,-284.52 161.982,-289.0984 156.6075,-279.5399 156.6075,-279.5399"/>
<text text-anchor="start" x="164.066" y="-299.5" font-family="Arial" font-size="10.00" fill="#000000">FOREIGN KEY (&quot;authorId&quot;) REFERENCES &quot;user&quot;(id) ON UPDATE CASCADE ON DELETE RESTRICT</text>
</g>
</g>
</svg>
